<?xml version="1.0" encoding="UTF-8"?>
<svg xmlns="http://www.w3.org/2000/svg" xmlns:xlink="http://www.w3.org/1999/xlink" width="104px" height="22px" viewBox="0 0 103 22" version="1.1">
<defs>
<linearGradient id="linear0" gradientUnits="userSpaceOnUse" x1="28.8913" y1="18.8094" x2="35.0967" y2="39.5842" gradientTransform="matrix(0.31307,0,0,0.314286,0,0)">
<stop offset="0" style="stop-color:rgb(7.45098%,6.27451%,34.117647%);stop-opacity:1;"/>
<stop offset="1" style="stop-color:rgb(30.980392%,28.235294%,67.843137%);stop-opacity:1;"/>
</linearGradient>
<linearGradient id="linear1" gradientUnits="userSpaceOnUse" x1="28.8913" y1="18.8094" x2="35.0967" y2="39.5842" gradientTransform="matrix(0.31307,0,0,0.314286,0,0)">
<stop offset="0" style="stop-color:rgb(7.45098%,6.27451%,34.117647%);stop-opacity:1;"/>
<stop offset="1" style="stop-color:rgb(30.980392%,28.235294%,67.843137%);stop-opacity:1;"/>
</linearGradient>
<linearGradient id="linear2" gradientUnits="userSpaceOnUse" x1="18.283" y1="48.2944" x2="6.18562" y2="20.1682" gradientTransform="matrix(0.31307,0,0,0.314286,0,0)">
<stop offset="0" style="stop-color:rgb(93.333333%,42.745098%,57.647059%);stop-opacity:1;"/>
<stop offset="1" style="stop-color:rgb(96.862745%,77.647059%,72.156863%);stop-opacity:1;"/>
</linearGradient>
<linearGradient id="linear3" gradientUnits="userSpaceOnUse" x1="32.6998" y1="56.6983" x2="30.824" y2="12.4476" gradientTransform="matrix(0.31307,0,0,0.314286,0,0)">
<stop offset="0" style="stop-color:rgb(23.529412%,67.45098%,58.823529%);stop-opacity:1;"/>
<stop offset="1" style="stop-color:rgb(37.254902%,80.784314%,72.156863%);stop-opacity:1;"/>
</linearGradient>
<linearGradient id="linear4" gradientUnits="userSpaceOnUse" x1="53.4174" y1="22.3712" x2="46.1697" y2="38.4852" gradientTransform="matrix(0.31307,0,0,0.314286,0,0)">
<stop offset="0" style="stop-color:rgb(50.196078%,76.470588%,100%);stop-opacity:1;"/>
<stop offset="0.455382" style="stop-color:rgb(20.392157%,60.784314%,96.862745%);stop-opacity:1;"/>
<stop offset="1" style="stop-color:rgb(44.313725%,30.196078%,83.921569%);stop-opacity:1;"/>
</linearGradient>
</defs>
<g id="surface1">
<path style=" stroke:none;fill-rule:nonzero;fill:rgb(100%,100%,100%);fill-opacity:1;" d="M 31.667969 5.515625 C 31.761719 5.230469 31.949219 5.101562 32.199219 5.101562 L 33.417969 5.101562 C 33.542969 5.101562 33.636719 5.132812 33.726562 5.230469 C 33.820312 5.324219 33.851562 5.421875 33.851562 5.546875 C 33.851562 5.582031 33.851562 5.644531 33.820312 5.707031 L 30.203125 16.0625 C 30.140625 16.253906 30.046875 16.414062 29.984375 16.476562 C 29.890625 16.574219 29.765625 16.605469 29.613281 16.605469 L 28.332031 16.605469 C 28.175781 16.605469 28.050781 16.574219 27.957031 16.476562 C 27.863281 16.378906 27.800781 16.253906 27.738281 16.0625 L 24.121094 5.707031 C 24.089844 5.644531 24.089844 5.582031 24.089844 5.546875 C 24.089844 5.421875 24.121094 5.324219 24.214844 5.230469 C 24.308594 5.132812 24.402344 5.101562 24.527344 5.101562 L 25.742188 5.101562 C 25.992188 5.101562 26.179688 5.230469 26.273438 5.515625 L 28.988281 13.378906 Z M 31.667969 5.515625 "/>
<path style=" stroke:none;fill-rule:nonzero;fill:rgb(100%,100%,100%);fill-opacity:1;" d="M 34.351562 8.199219 C 34.445312 8.105469 34.539062 8.074219 34.664062 8.074219 L 35.878906 8.074219 C 36.003906 8.074219 36.097656 8.105469 36.191406 8.199219 C 36.285156 8.296875 36.316406 8.390625 36.316406 8.519531 L 36.316406 12.707031 C 36.316406 13.410156 36.472656 13.921875 36.753906 14.304688 C 37.035156 14.6875 37.472656 14.878906 38.0625 14.878906 C 38.625 14.878906 39.0625 14.6875 39.34375 14.304688 C 39.65625 13.921875 39.808594 13.378906 39.808594 12.707031 L 39.808594 8.519531 C 39.808594 8.390625 39.839844 8.296875 39.933594 8.199219 C 40.027344 8.105469 40.121094 8.074219 40.246094 8.074219 L 41.464844 8.074219 C 41.589844 8.074219 41.683594 8.105469 41.777344 8.199219 C 41.867188 8.296875 41.898438 8.390625 41.898438 8.519531 L 41.898438 16.1875 C 41.898438 16.316406 41.867188 16.414062 41.777344 16.507812 C 41.683594 16.605469 41.589844 16.636719 41.464844 16.636719 L 40.246094 16.636719 C 40.121094 16.636719 40.027344 16.605469 39.933594 16.507812 C 39.839844 16.414062 39.808594 16.316406 39.808594 16.1875 L 39.808594 15.804688 C 39.1875 16.476562 38.4375 16.796875 37.566406 16.796875 C 36.347656 16.796875 35.507812 16.445312 34.976562 15.742188 C 34.476562 15.039062 34.195312 14.113281 34.195312 12.960938 L 34.195312 8.519531 C 34.226562 8.390625 34.289062 8.265625 34.351562 8.199219 Z M 34.351562 8.199219 "/>
<path style=" stroke:none;fill-rule:nonzero;fill:rgb(100%,100%,100%);fill-opacity:1;" d="M 49.230469 8.457031 C 49.820312 8.839844 50.289062 9.351562 50.632812 9.988281 C 50.945312 10.628906 51.132812 11.332031 51.132812 12.066406 L 51.132812 12.800781 C 51.132812 12.929688 51.101562 13.027344 51.007812 13.121094 C 50.914062 13.21875 50.820312 13.25 50.695312 13.25 L 45.332031 13.25 C 45.332031 13.730469 45.519531 14.113281 45.890625 14.367188 C 46.265625 14.65625 46.703125 14.78125 47.203125 14.78125 C 47.792969 14.78125 48.230469 14.65625 48.574219 14.398438 C 48.699219 14.304688 48.792969 14.238281 48.855469 14.207031 C 48.917969 14.175781 49.042969 14.144531 49.167969 14.144531 L 50.445312 14.144531 C 50.570312 14.144531 50.664062 14.175781 50.757812 14.273438 C 50.851562 14.367188 50.882812 14.464844 50.882812 14.558594 C 50.882812 14.78125 50.726562 15.070312 50.445312 15.421875 C 50.164062 15.773438 49.726562 16.09375 49.167969 16.347656 C 48.605469 16.605469 47.949219 16.730469 47.203125 16.730469 C 46.421875 16.730469 45.703125 16.539062 45.113281 16.15625 C 44.519531 15.773438 44.050781 15.261719 43.742188 14.589844 C 43.429688 13.921875 43.273438 13.152344 43.273438 12.257812 C 43.273438 11.429688 43.429688 10.691406 43.742188 10.023438 C 44.050781 9.351562 44.519531 8.808594 45.113281 8.425781 C 45.703125 8.039062 46.390625 7.816406 47.171875 7.816406 C 47.917969 7.882812 48.605469 8.074219 49.230469 8.457031 Z M 48.917969 11.394531 C 48.792969 10.375 48.199219 9.894531 47.140625 9.894531 C 46.578125 9.894531 46.140625 10.054688 45.828125 10.339844 C 45.519531 10.660156 45.332031 11.011719 45.300781 11.394531 Z M 48.917969 11.394531 "/>
<path style=" stroke:none;fill-rule:nonzero;fill:rgb(100%,100%,100%);fill-opacity:1;" d="M 62.921875 8.296875 C 62.828125 8.390625 62.734375 8.425781 62.609375 8.425781 L 61.488281 8.425781 C 61.332031 8.425781 61.175781 8.390625 61.082031 8.328125 C 60.988281 8.265625 60.894531 8.167969 60.832031 8.039062 C 60.644531 7.722656 60.394531 7.496094 60.050781 7.304688 C 59.710938 7.113281 59.242188 7.019531 58.648438 7.019531 C 58.054688 7.019531 57.589844 7.144531 57.183594 7.371094 C 56.777344 7.625 56.589844 7.945312 56.589844 8.328125 C 56.589844 8.648438 56.683594 8.902344 56.871094 9.09375 C 57.058594 9.285156 57.339844 9.414062 57.746094 9.542969 C 58.148438 9.671875 58.773438 9.832031 59.679688 10.023438 C 60.988281 10.308594 61.921875 10.691406 62.484375 11.234375 C 63.078125 11.746094 63.359375 12.449219 63.359375 13.34375 C 63.359375 14.015625 63.171875 14.589844 62.796875 15.101562 C 62.421875 15.613281 61.890625 16.027344 61.175781 16.316406 C 60.488281 16.605469 59.648438 16.765625 58.710938 16.765625 C 57.898438 16.765625 57.152344 16.636719 56.464844 16.378906 C 55.78125 16.125 55.21875 15.742188 54.78125 15.261719 C 54.34375 14.78125 54.125 14.207031 54.09375 13.601562 C 54.09375 13.472656 54.125 13.378906 54.21875 13.28125 C 54.3125 13.183594 54.40625 13.152344 54.53125 13.152344 L 55.65625 13.152344 C 55.808594 13.152344 55.964844 13.183594 56.058594 13.25 C 56.152344 13.3125 56.246094 13.410156 56.308594 13.535156 C 56.496094 13.886719 56.746094 14.175781 57.089844 14.398438 C 57.433594 14.625 57.960938 14.71875 58.710938 14.71875 C 59.429688 14.71875 60.019531 14.589844 60.488281 14.367188 C 60.957031 14.144531 61.207031 13.792969 61.207031 13.34375 C 61.207031 13.089844 61.113281 12.867188 60.925781 12.707031 C 60.738281 12.546875 60.488281 12.417969 60.144531 12.324219 C 59.800781 12.226562 59.304688 12.097656 58.648438 11.90625 C 58.367188 11.84375 58.023438 11.78125 57.621094 11.652344 C 56.496094 11.363281 55.6875 10.980469 55.1875 10.46875 C 54.6875 9.988281 54.4375 9.253906 54.4375 8.296875 C 54.4375 7.65625 54.625 7.082031 55 6.539062 C 55.375 6.027344 55.871094 5.613281 56.527344 5.324219 C 57.183594 5.035156 57.898438 4.878906 58.679688 4.878906 C 59.585938 4.878906 60.363281 5.035156 61.019531 5.355469 C 61.675781 5.675781 62.171875 6.058594 62.515625 6.539062 C 62.859375 7.019531 63.046875 7.464844 63.078125 7.914062 C 63.046875 8.105469 63.015625 8.199219 62.921875 8.296875 Z M 62.921875 8.296875 "/>
<path style=" stroke:none;fill-rule:nonzero;fill:rgb(100%,100%,100%);fill-opacity:1;" d="M 66.882812 14.335938 C 67.226562 14.65625 67.664062 14.816406 68.160156 14.816406 C 68.628906 14.816406 69.003906 14.75 69.253906 14.589844 C 69.503906 14.464844 69.722656 14.207031 69.90625 13.921875 C 70 13.792969 70.0625 13.664062 70.15625 13.601562 C 70.25 13.535156 70.34375 13.472656 70.4375 13.472656 L 71.65625 13.472656 C 71.78125 13.472656 71.871094 13.503906 71.964844 13.601562 C 72.058594 13.695312 72.089844 13.792969 72.089844 13.921875 C 72.058594 14.273438 71.902344 14.6875 71.625 15.132812 C 71.34375 15.582031 70.90625 15.964844 70.3125 16.285156 C 69.722656 16.605469 69.003906 16.765625 68.160156 16.765625 C 67.414062 16.765625 66.726562 16.605469 66.132812 16.253906 C 65.542969 15.902344 65.074219 15.453125 64.730469 14.878906 C 64.386719 14.304688 64.199219 13.664062 64.136719 12.992188 C 64.136719 12.867188 64.105469 12.640625 64.105469 12.324219 C 64.105469 12.003906 64.105469 11.78125 64.136719 11.652344 C 64.199219 10.980469 64.386719 10.339844 64.730469 9.765625 C 65.074219 9.191406 65.542969 8.742188 66.132812 8.390625 C 66.726562 8.039062 67.414062 7.882812 68.160156 7.882812 C 69.003906 7.882812 69.722656 8.039062 70.3125 8.359375 C 70.90625 8.679688 71.34375 9.0625 71.625 9.511719 C 71.902344 9.957031 72.058594 10.375 72.089844 10.726562 C 72.089844 10.851562 72.058594 10.949219 71.964844 11.042969 C 71.871094 11.140625 71.78125 11.171875 71.65625 11.171875 L 70.4375 11.171875 C 70.34375 11.171875 70.25 11.140625 70.15625 11.042969 C 70.0625 10.980469 70 10.851562 69.90625 10.726562 C 69.691406 10.40625 69.472656 10.179688 69.253906 10.054688 C 69.003906 9.925781 68.660156 9.832031 68.160156 9.832031 C 67.664062 9.832031 67.257812 9.988281 66.882812 10.308594 C 66.507812 10.628906 66.320312 11.109375 66.257812 11.746094 C 66.257812 11.84375 66.226562 12.035156 66.226562 12.324219 C 66.226562 12.609375 66.226562 12.800781 66.257812 12.898438 C 66.289062 13.535156 66.507812 14.015625 66.882812 14.335938 Z M 66.882812 14.335938 "/>
<path style=" stroke:none;fill-rule:nonzero;fill:rgb(100%,100%,100%);fill-opacity:1;" d="M 81.042969 16.476562 C 80.949219 16.574219 80.855469 16.605469 80.730469 16.605469 L 79.515625 16.605469 C 79.390625 16.605469 79.296875 16.574219 79.203125 16.476562 C 79.109375 16.378906 79.078125 16.285156 79.078125 16.15625 L 79.078125 12.003906 C 79.078125 11.332031 78.921875 10.789062 78.609375 10.40625 C 78.296875 10.023438 77.832031 9.832031 77.238281 9.832031 C 76.675781 9.832031 76.238281 10.023438 75.898438 10.4375 C 75.554688 10.820312 75.398438 11.363281 75.398438 12.003906 L 75.398438 16.1875 C 75.398438 16.316406 75.367188 16.414062 75.273438 16.507812 C 75.179688 16.605469 75.085938 16.636719 74.960938 16.636719 L 73.746094 16.636719 C 73.621094 16.636719 73.527344 16.605469 73.433594 16.507812 C 73.339844 16.414062 73.308594 16.316406 73.308594 16.1875 L 73.308594 5.386719 C 73.308594 5.261719 73.339844 5.164062 73.433594 5.070312 C 73.527344 4.972656 73.621094 4.941406 73.746094 4.941406 L 74.960938 4.941406 C 75.085938 4.941406 75.179688 4.972656 75.273438 5.070312 C 75.367188 5.164062 75.398438 5.261719 75.398438 5.386719 L 75.398438 8.902344 C 76.050781 8.234375 76.800781 7.914062 77.707031 7.914062 C 78.921875 7.914062 79.796875 8.265625 80.324219 8.96875 C 80.855469 9.671875 81.136719 10.597656 81.136719 11.746094 L 81.136719 16.1875 C 81.167969 16.285156 81.105469 16.414062 81.042969 16.476562 Z M 81.042969 16.476562 "/>
<path style=" stroke:none;fill-rule:nonzero;fill:rgb(100%,100%,100%);fill-opacity:1;" d="M 90.523438 12.355469 C 90.523438 12.640625 90.523438 12.929688 90.492188 13.183594 C 90.429688 13.855469 90.242188 14.464844 89.902344 15.007812 C 89.558594 15.550781 89.089844 15.996094 88.496094 16.316406 C 87.90625 16.636719 87.21875 16.796875 86.46875 16.796875 C 85.722656 16.796875 85.035156 16.636719 84.441406 16.316406 C 83.851562 15.996094 83.382812 15.550781 83.039062 15.007812 C 82.695312 14.464844 82.507812 13.855469 82.445312 13.183594 C 82.445312 13.058594 82.414062 12.769531 82.414062 12.355469 C 82.414062 11.9375 82.414062 11.652344 82.445312 11.523438 C 82.507812 10.851562 82.695312 10.214844 83.039062 9.671875 C 83.382812 9.128906 83.851562 8.679688 84.441406 8.359375 C 85.035156 8.039062 85.722656 7.882812 86.46875 7.882812 C 87.21875 7.882812 87.90625 8.039062 88.496094 8.359375 C 89.089844 8.679688 89.558594 9.128906 89.902344 9.671875 C 90.242188 10.214844 90.429688 10.820312 90.492188 11.523438 C 90.523438 11.78125 90.523438 12.066406 90.523438 12.355469 Z M 85.160156 10.277344 C 84.785156 10.53125 84.597656 10.980469 84.535156 11.621094 C 84.535156 11.714844 84.503906 11.972656 84.503906 12.355469 C 84.503906 12.738281 84.503906 12.992188 84.535156 13.089844 C 84.597656 13.730469 84.816406 14.144531 85.160156 14.429688 C 85.535156 14.6875 85.941406 14.816406 86.46875 14.816406 C 86.96875 14.816406 87.40625 14.6875 87.78125 14.429688 C 88.152344 14.175781 88.339844 13.730469 88.402344 13.089844 C 88.433594 12.867188 88.433594 12.609375 88.433594 12.355469 C 88.433594 12.066406 88.433594 11.84375 88.402344 11.621094 C 88.339844 10.980469 88.121094 10.566406 87.78125 10.277344 C 87.40625 10.023438 87 9.894531 86.46875 9.894531 C 85.96875 9.863281 85.535156 9.988281 85.160156 10.277344 Z M 85.160156 10.277344 "/>
<path style=" stroke:none;fill-rule:nonzero;fill:rgb(100%,100%,100%);fill-opacity:1;" d="M 99.601562 12.355469 C 99.601562 12.640625 99.601562 12.929688 99.570312 13.183594 C 99.507812 13.855469 99.320312 14.464844 98.976562 15.007812 C 98.632812 15.550781 98.164062 15.996094 97.574219 16.316406 C 96.980469 16.636719 96.292969 16.796875 95.546875 16.796875 C 94.796875 16.796875 94.109375 16.636719 93.519531 16.316406 C 92.925781 15.996094 92.457031 15.550781 92.113281 15.007812 C 91.773438 14.464844 91.585938 13.855469 91.523438 13.183594 C 91.523438 13.058594 91.492188 12.769531 91.492188 12.355469 C 91.492188 11.9375 91.492188 11.652344 91.523438 11.523438 C 91.585938 10.851562 91.773438 10.214844 92.113281 9.671875 C 92.457031 9.128906 92.925781 8.679688 93.519531 8.359375 C 94.109375 8.039062 94.796875 7.882812 95.546875 7.882812 C 96.292969 7.882812 96.980469 8.039062 97.574219 8.359375 C 98.164062 8.679688 98.632812 9.128906 98.976562 9.671875 C 99.320312 10.214844 99.507812 10.820312 99.570312 11.523438 C 99.601562 11.78125 99.601562 12.066406 99.601562 12.355469 Z M 94.234375 10.277344 C 93.863281 10.53125 93.675781 10.980469 93.613281 11.621094 C 93.613281 11.714844 93.582031 11.972656 93.582031 12.355469 C 93.582031 12.738281 93.582031 12.992188 93.613281 13.089844 C 93.675781 13.730469 93.894531 14.144531 94.234375 14.429688 C 94.578125 14.6875 95.015625 14.816406 95.546875 14.816406 C 96.042969 14.816406 96.480469 14.6875 96.855469 14.429688 C 97.199219 14.175781 97.417969 13.730469 97.480469 13.089844 C 97.511719 12.867188 97.511719 12.609375 97.511719 12.355469 C 97.511719 12.066406 97.511719 11.84375 97.480469 11.621094 C 97.417969 10.980469 97.199219 10.566406 96.855469 10.277344 C 96.480469 10.023438 96.074219 9.894531 95.546875 9.894531 C 95.015625 9.863281 94.578125 9.988281 94.234375 10.277344 Z M 94.234375 10.277344 "/>
<path style=" stroke:none;fill-rule:nonzero;fill:rgb(100%,100%,100%);fill-opacity:1;" d="M 102.875 16.476562 C 102.78125 16.574219 102.6875 16.605469 102.5625 16.605469 L 101.347656 16.605469 C 101.222656 16.605469 101.128906 16.574219 101.035156 16.476562 C 100.941406 16.378906 100.910156 16.285156 100.910156 16.15625 L 100.910156 5.386719 C 100.910156 5.261719 100.941406 5.164062 101.035156 5.070312 C 101.128906 4.972656 101.222656 4.941406 101.347656 4.941406 L 102.5625 4.941406 C 102.6875 4.941406 102.78125 4.972656 102.875 5.070312 C 102.96875 5.164062 103 5.261719 103 5.386719 L 103 16.1875 C 103 16.285156 102.96875 16.414062 102.875 16.476562 Z M 102.875 16.476562 "/>
<path style=" stroke:none;fill-rule:nonzero;fill:url(#linear0);" d="M 5.640625 13.648438 C 4.175781 6.347656 5.5625 1.554688 5.5625 1.554688 C 5.5625 1.554688 5.191406 4.472656 8.113281 9.171875 C 8.074219 15 9.214844 18.042969 9.214844 18.042969 L 9.449219 17.867188 L 9.214844 18.074219 C 9.214844 18.074219 7.484375 16.648438 5.640625 13.648438 Z M 5.640625 13.648438 "/>
<path style=" stroke:none;fill-rule:nonzero;fill:url(#linear1);" d="M 12.542969 12.613281 C 13.242188 13.324219 13.894531 13.816406 14.367188 14.050781 C 14.367188 14.050781 14.363281 14.050781 14.359375 14.046875 C 14.359375 14.046875 14.890625 14.238281 14.984375 14.113281 C 15.628906 13.421875 15.789062 12.136719 15.355469 9.71875 C 12.894531 8.300781 12.582031 6.089844 12.582031 6.089844 C 12.582031 6.089844 12.136719 9.160156 12.542969 12.613281 Z M 12.542969 12.613281 "/>
<path style=" stroke:none;fill-rule:nonzero;fill:url(#linear2);" d="M 5.5625 1.554688 C 5.5625 1.554688 3.535156 8.550781 6.96875 18.523438 C 7.0625 18.808594 6.96875 19.128906 6.71875 19.320312 L 3.101562 21.875 C 2.757812 22.132812 2.257812 21.972656 2.101562 21.558594 C 1.136719 18.90625 -1.515625 10.117188 1.167969 0.5 C 1.292969 0.117188 1.695312 -0.109375 2.070312 0.0507812 Z M 5.5625 1.554688 "/>
<path style=" stroke:none;fill-rule:nonzero;fill:url(#linear3);" d="M 12.488281 15.613281 L 9.214844 18.042969 C 9.214844 18.042969 7.46875 13.378906 8.371094 4.527344 C 8.433594 4.015625 8.964844 3.757812 9.402344 4.015625 L 12.582031 6.089844 C 12.582031 6.089844 11.957031 10.40625 12.863281 14.558594 C 12.957031 14.976562 12.800781 15.390625 12.488281 15.613281 Z M 12.488281 15.613281 "/>
<path style=" stroke:none;fill-rule:nonzero;fill:url(#linear4);" d="M 18.539062 10.214844 L 15.515625 8.199219 C 15.328125 8.074219 15.046875 8.265625 15.109375 8.488281 C 15.824219 11.714844 15.730469 13.3125 14.984375 14.113281 C 14.890625 14.238281 14.359375 14.046875 14.359375 14.046875 C 14.859375 14.304688 14.984375 14.175781 14.984375 14.175781 C 15.484375 13.792969 17.355469 12.417969 18.539062 11.585938 C 19.007812 11.234375 19.007812 10.53125 18.539062 10.214844 Z M 18.539062 10.214844 "/>
</g>
</svg>
