<?xml version="1.0" encoding="UTF-8"?>
<svg xmlns="http://www.w3.org/2000/svg" xmlns:xlink="http://www.w3.org/1999/xlink" width="35px" height="35px" viewBox="0 0 35 35" version="1.1">
<g id="surface1">
<path style=" stroke:none;fill-rule:nonzero;fill:rgb(0%,0%,0%);fill-opacity:1;" d="M 3.28125 4.375 C 1.46875 4.375 0 5.84375 0 7.65625 C 0 8.6875 0.484375 9.660156 1.3125 10.28125 L 16.1875 21.4375 C 16.96875 22.019531 18.03125 22.019531 18.8125 21.4375 L 33.6875 10.28125 C 34.515625 9.660156 35 8.6875 35 7.65625 C 35 5.84375 33.53125 4.375 31.71875 4.375 Z M 0 12.03125 L 0 26.25 C 0 28.664062 1.960938 30.625 4.375 30.625 L 30.625 30.625 C 33.039062 30.625 35 28.664062 35 26.25 L 35 12.03125 L 20.125 23.1875 C 18.566406 24.355469 16.433594 24.355469 14.875 23.1875 Z M 0 12.03125 "/>
</g>
</svg>
