<?xml version="1.0" encoding="UTF-8"?>
<svg xmlns="http://www.w3.org/2000/svg" xmlns:xlink="http://www.w3.org/1999/xlink" width="34px" height="35px" viewBox="0 0 34 35" version="1.1">
<g id="surface1">
<path style=" stroke:none;fill-rule:nonzero;fill:rgb(0%,0%,0%);fill-opacity:1;" d="M 11.371094 27.164062 C 11.371094 27.304688 11.214844 27.414062 11.015625 27.414062 C 10.789062 27.433594 10.632812 27.324219 10.632812 27.164062 C 10.632812 27.03125 10.789062 26.917969 10.988281 26.917969 C 11.195312 26.898438 11.371094 27.007812 11.371094 27.164062 Z M 9.242188 26.859375 C 9.191406 26.996094 9.328125 27.152344 9.535156 27.191406 C 9.714844 27.261719 9.917969 27.191406 9.960938 27.054688 C 10 26.917969 9.871094 26.761719 9.664062 26.699219 C 9.488281 26.652344 9.289062 26.722656 9.242188 26.859375 Z M 12.269531 26.742188 C 12.070312 26.789062 11.933594 26.921875 11.953125 27.078125 C 11.976562 27.214844 12.152344 27.304688 12.359375 27.253906 C 12.558594 27.207031 12.695312 27.078125 12.675781 26.941406 C 12.652344 26.8125 12.46875 26.722656 12.269531 26.742188 Z M 16.78125 0.546875 C 7.273438 0.546875 0 7.746094 0 17.226562 C 0 24.808594 4.785156 31.296875 11.617188 33.578125 C 12.496094 33.734375 12.804688 33.195312 12.804688 32.75 C 12.804688 32.328125 12.785156 29.988281 12.785156 28.554688 C 12.785156 28.554688 7.984375 29.578125 6.976562 26.515625 C 6.976562 26.515625 6.195312 24.527344 5.074219 24.015625 C 5.074219 24.015625 3.503906 22.941406 5.183594 22.960938 C 5.183594 22.960938 6.890625 23.097656 7.828125 24.726562 C 9.328125 27.363281 11.84375 26.605469 12.824219 26.152344 C 12.984375 25.058594 13.429688 24.300781 13.921875 23.851562 C 10.089844 23.425781 6.222656 22.871094 6.222656 16.296875 C 6.222656 14.417969 6.746094 13.472656 7.84375 12.269531 C 7.664062 11.824219 7.082031 9.992188 8.019531 7.628906 C 9.453125 7.183594 12.75 9.472656 12.75 9.472656 C 14.121094 9.089844 15.59375 8.894531 17.054688 8.894531 C 18.515625 8.894531 19.988281 9.089844 21.359375 9.472656 C 21.359375 9.472656 24.65625 7.175781 26.089844 7.628906 C 27.027344 10 26.445312 11.824219 26.269531 12.269531 C 27.363281 13.480469 28.035156 14.421875 28.035156 16.296875 C 28.035156 22.894531 24 23.417969 20.167969 23.851562 C 20.796875 24.390625 21.332031 25.414062 21.332031 27.023438 C 21.332031 29.324219 21.3125 32.175781 21.3125 32.738281 C 21.3125 33.179688 21.628906 33.722656 22.496094 33.5625 C 29.351562 31.296875 34 24.808594 34 17.226562 C 34 7.746094 26.289062 0.546875 16.78125 0.546875 Z M 6.664062 24.125 C 6.574219 24.191406 6.59375 24.351562 6.710938 24.480469 C 6.820312 24.589844 6.976562 24.636719 7.066406 24.546875 C 7.15625 24.480469 7.136719 24.320312 7.019531 24.191406 C 6.910156 24.082031 6.753906 24.035156 6.664062 24.125 Z M 5.921875 23.570312 C 5.875 23.660156 5.941406 23.769531 6.082031 23.835938 C 6.191406 23.90625 6.328125 23.882812 6.375 23.789062 C 6.421875 23.699219 6.355469 23.589844 6.21875 23.523438 C 6.082031 23.480469 5.96875 23.5 5.921875 23.570312 Z M 8.144531 26.003906 C 8.035156 26.09375 8.074219 26.296875 8.234375 26.425781 C 8.390625 26.585938 8.589844 26.605469 8.679688 26.496094 C 8.765625 26.40625 8.726562 26.203125 8.589844 26.070312 C 8.4375 25.914062 8.234375 25.894531 8.144531 26.003906 Z M 7.363281 25 C 7.253906 25.066406 7.253906 25.246094 7.363281 25.402344 C 7.472656 25.558594 7.65625 25.628906 7.746094 25.558594 C 7.855469 25.46875 7.855469 25.292969 7.746094 25.136719 C 7.648438 24.976562 7.472656 24.910156 7.363281 25 Z M 7.363281 25 "/>
</g>
</svg>
