<?xml version="1.0" encoding="UTF-8"?>
<svg xmlns="http://www.w3.org/2000/svg" xmlns:xlink="http://www.w3.org/1999/xlink" width="31px" height="35px" viewBox="0 0 31 35" version="1.1">
<g id="surface1">
<path style=" stroke:none;fill-rule:nonzero;fill:rgb(0%,0%,0%);fill-opacity:1;" d="M 28.785156 2.1875 L 2.207031 2.1875 C 0.988281 2.1875 0 3.179688 0 4.394531 L 0 30.605469 C 0 31.820312 0.988281 32.8125 2.207031 32.8125 L 28.785156 32.8125 C 30.003906 32.8125 31 31.820312 31 30.605469 L 31 4.394531 C 31 3.179688 30.003906 2.1875 28.785156 2.1875 Z M 9.371094 28.4375 L 4.773438 28.4375 L 4.773438 13.820312 L 9.375 13.820312 L 9.375 28.4375 Z M 7.070312 11.828125 C 5.597656 11.828125 4.40625 10.644531 4.40625 9.195312 C 4.40625 7.746094 5.597656 6.5625 7.070312 6.5625 C 8.539062 6.5625 9.734375 7.746094 9.734375 9.195312 C 9.734375 10.648438 8.546875 11.828125 7.070312 11.828125 Z M 26.59375 28.4375 L 21.996094 28.4375 L 21.996094 21.328125 C 21.996094 19.632812 21.964844 17.453125 19.609375 17.453125 C 17.214844 17.453125 16.847656 19.296875 16.847656 21.203125 L 16.847656 28.4375 L 12.253906 28.4375 L 12.253906 13.820312 L 16.664062 13.820312 L 16.664062 15.816406 L 16.726562 15.816406 C 17.339844 14.667969 18.84375 13.460938 21.078125 13.460938 C 25.726562 13.460938 26.59375 16.488281 26.59375 20.425781 Z M 26.59375 28.4375 "/>
</g>
</svg>
